# xmcd
# 
# Track frame offsets:
#     150
#     22903
#     41557
#     63685
#     85360
#     103647
#     122623
#     145488
#     168639
#     192626
#     219161
#     241911
#     264647
# 
# Disc length: 3873
# 
# Revision: 3
# Processed by: cddbd v1.5.2PL0 Copyright (c) Steve Scherf et al.
# Submitted via: fre:ac v1.0.17
# 
DISCID=bd0f1f0d
DTITLE=THE YELLOW MONKEY - Romantist Taste 2012
DYEAR=2012
DGENRE=Rock
TTITLE0=Romantist Taste 2012
TTITLE1=SPARK (Live)
TTITLE2=FOUR SEASONS (Live)
TTITLE3=熱帯夜 (Live)
TTITLE4=ROCK STAR (Live)
TTITLE5=嘆くなり我が夜のFantasy (Live)
TTITLE6=太陽が燃えている (Live)
TTITLE7=LOVE COMMUNICATION (Live)
TTITLE8=JAM (Live)
TTITLE9=THIS IS FOR YOU (Live)
TTITLE10=悲しきASIAN BOY (Live)
TTITLE11=FATHER (Live)
TTITLE12=空の青と本当の気持ち (Live)
EXTD=YEAR: 2012
EXTT0=
EXTT1=
EXTT2=
EXTT3=
EXTT4=
EXTT5=
EXTT6=
EXTT7=
EXTT8=
EXTT9=
EXTT10=
EXTT11=
EXTT12=
PLAYORDER=
